<?xml version="1.0" standalone="no"?>
<!DOCTYPE svg PUBLIC "-//W3C//DTD SVG 20010904//EN"
 "http://www.w3.org/TR/2001/REC-SVG-20010904/DTD/svg10.dtd">
<svg version="1.0" xmlns="http://www.w3.org/2000/svg"
 width="3530.000000pt" height="2647.000000pt" viewBox="0 0 3530.000000 2647.000000"
 preserveAspectRatio="xMidYMid meet">

<g transform="translate(0.000000,2647.000000) scale(0.100000,-0.100000)"
fill="#000000" stroke="none">
<path d="M10178 22061 c-79 -93 -130 -207 -165 -371 -25 -119 -25 -485 1 -650
82 -530 277 -1103 580 -1708 372 -742 1001 -1463 1711 -1960 276 -193 625
-383 915 -497 679 -268 1483 -457 2140 -505 85 -6 169 -13 187 -16 l32 -5
-102 -88 c-310 -268 -526 -549 -608 -788 -28 -83 -33 -116 -37 -215 -4 -105
-1 -127 23 -210 30 -106 93 -230 159 -316 154 -201 394 -330 733 -394 173 -33
506 -33 718 0 354 55 894 174 1225 272 19 5 38 10 42 10 4 0 -20 -58 -52 -130
-172 -377 -250 -673 -250 -945 0 -394 190 -637 564 -722 99 -23 367 -22 501 1
341 58 772 219 1164 436 l94 52 -6 -33 c-34 -192 -33 -486 2 -624 43 -166 158
-351 282 -453 76 -62 276 -163 441 -223 l117 -42 -63 -91 c-353 -507 -562
-815 -618 -914 -200 -352 -310 -737 -339 -1189 -36 -568 95 -915 407 -1075
140 -73 196 -88 320 -88 263 0 589 85 833 217 396 213 972 710 1376 1186 32
37 59 67 61 67 2 0 -15 -33 -36 -73 -50 -92 -111 -279 -139 -422 -90 -465 -35
-798 161 -980 88 -82 143 -100 303 -99 111 1 143 4 218 27 230 71 476 242 642
450 171 213 369 535 530 862 113 229 129 277 98 293 -40 22 -65 -6 -141 -158
-181 -361 -374 -655 -593 -906 -284 -326 -581 -467 -739 -353 -48 35 -95 104
-116 174 -22 70 -29 260 -15 399 34 325 141 664 331 1051 152 307 292 526 489
760 140 167 180 254 181 392 0 120 -43 177 -135 177 -121 0 -233 -117 -401
-420 -326 -589 -914 -1302 -1509 -1830 -376 -332 -773 -559 -1086 -619 -104
-19 -268 -19 -342 0 -137 36 -238 118 -300 245 -141 288 -105 641 128 1235
160 408 424 877 797 1413 77 111 104 142 116 137 106 -42 472 -112 732 -141
195 -21 803 -30 1021 -15 627 45 1170 199 1520 432 116 78 335 293 404 397 95
145 136 275 136 432 0 189 -56 335 -179 470 -74 81 -207 173 -314 218 -323
134 -822 135 -1343 2 -537 -137 -1072 -425 -1585 -854 -161 -134 -407 -364
-521 -487 l-103 -111 -60 7 c-215 25 -421 134 -537 284 -110 142 -158 292
-166 517 -6 163 5 267 48 444 l31 125 116 82 c199 140 331 251 498 417 239
238 344 394 379 564 17 81 14 116 -18 211 -20 59 -27 68 -79 101 -75 49 -132
64 -219 58 -233 -17 -490 -289 -724 -763 -77 -156 -185 -425 -185 -460 0 -19
-42 -50 -195 -141 -825 -491 -1581 -648 -1846 -383 -84 84 -126 229 -114 394
21 284 139 631 344 1013 l66 123 100 31 c260 80 648 242 845 354 174 99 305
241 386 419 32 70 44 214 25 306 -57 273 -271 364 -543 228 -252 -126 -646
-557 -945 -1033 l-68 -109 -195 -59 c-388 -116 -934 -243 -1290 -300 -172 -27
-492 -32 -620 -10 -263 47 -424 118 -555 247 -170 167 -233 383 -170 582 79
251 361 576 765 881 l94 72 71 0 c217 1 575 38 860 91 246 45 359 76 473 129
204 96 311 216 312 348 0 69 -18 109 -69 155 -82 74 -197 103 -371 94 -290
-16 -812 -243 -1284 -560 l-119 -80 -176 7 c-315 12 -581 38 -881 87 -608 98
-1393 332 -1727 515 -867 475 -1580 1085 -2050 1754 -314 446 -645 1161 -814
1754 -91 321 -124 538 -124 811 0 271 11 316 35 150 74 -494 320 -1006 708
-1470 106 -126 357 -375 482 -476 718 -585 1634 -973 2885 -1224 1190 -238
2353 -302 3540 -194 681 62 1388 184 2013 348 l109 29 7 -162 c20 -490 163
-956 435 -1414 313 -528 833 -999 1391 -1260 701 -328 1456 -397 2140 -197
399 117 799 344 1056 600 192 192 183 265 -16 142 -600 -372 -917 -499 -1426
-573 -180 -26 -523 -24 -714 5 -472 71 -902 234 -1274 482 -184 122 -279 201
-452 374 -252 250 -430 497 -579 800 -125 254 -203 492 -250 755 -20 115 -40
424 -31 482 l7 47 112 35 c636 200 1018 351 1211 480 203 135 333 290 389 459
29 90 28 249 -2 337 -87 252 -332 379 -672 349 -287 -24 -563 -156 -793 -379
-153 -148 -265 -305 -343 -484 -54 -123 -119 -330 -143 -456 -12 -63 -23 -125
-26 -137 -5 -25 -26 -32 -289 -102 -719 -191 -1481 -314 -2325 -378 -285 -21
-1182 -24 -1490 -5 -1062 66 -2072 253 -2885 533 -465 160 -928 388 -1289 635
-487 335 -886 765 -1162 1256 -123 219 -246 536 -310 801 l-28 118 17 66 c19
71 61 161 108 230 37 54 31 55 -13 4z m11232 -1988 c72 -23 143 -90 160 -153
33 -122 -11 -248 -128 -364 -151 -149 -291 -225 -707 -381 -192 -72 -587 -207
-592 -202 -1 2 8 48 21 103 46 189 121 367 214 509 57 86 204 239 291 305 235
173 531 246 741 183z m-3991 -3131 c19 -10 37 -22 39 -29 7 -25 -80 -102 -166
-146 -119 -61 -216 -90 -465 -137 -182 -35 -545 -83 -555 -74 -12 9 289 174
457 250 149 67 364 140 453 153 81 12 193 4 237 -17z m1801 -1075 c36 -18 70
-74 70 -116 0 -20 -14 -65 -30 -100 -62 -130 -224 -257 -495 -387 -148 -71
-403 -176 -417 -172 -10 4 67 114 178 253 248 313 511 534 634 535 19 0 46 -6
60 -13z m1571 -1261 c-38 -109 -188 -299 -347 -441 -43 -38 -96 -86 -118 -105
-37 -33 -38 -34 -31 -10 4 14 39 82 77 152 82 147 203 313 282 385 59 55 135
98 149 84 4 -4 -1 -34 -12 -65z m3202 -1081 c337 -51 547 -221 576 -470 24
-196 -44 -434 -169 -595 -199 -257 -504 -437 -935 -550 -561 -148 -1467 -174
-2060 -59 -108 21 -278 64 -301 77 -11 6 23 51 138 182 388 443 763 784 1124
1020 300 197 697 344 1064 394 142 19 439 20 563 1z"/>
<path d="M13202 6879 c-197 -30 -330 -145 -398 -344 -24 -69 -28 -100 -32
-231 -7 -240 37 -400 140 -506 89 -90 211 -133 378 -132 275 2 445 134 517
404 13 49 17 104 17 220 0 176 -12 240 -69 357 -55 111 -161 194 -287 222 -70
16 -197 21 -266 10z m262 -158 c144 -70 204 -220 193 -485 -5 -130 -19 -192
-60 -272 -23 -44 -86 -103 -142 -132 -45 -24 -61 -27 -160 -27 -94 0 -117 3
-160 23 -130 60 -189 180 -201 407 -13 250 71 432 230 495 74 29 230 25 300
-9z"/>
<path d="M28239 6880 c-183 -29 -330 -131 -411 -285 -47 -91 -67 -168 -74
-290 -19 -315 134 -549 406 -622 137 -36 338 -18 482 45 79 33 80 41 76 335
-3 223 -4 240 -22 253 -16 11 -63 14 -223 14 -190 0 -203 -1 -213 -19 -5 -11
-10 -32 -10 -46 0 -14 5 -35 10 -46 10 -17 23 -19 155 -19 l145 0 0 -173 0
-174 -37 -16 c-69 -30 -132 -40 -218 -34 -238 14 -388 195 -388 467 0 214 84
369 241 443 57 27 81 32 165 35 83 4 109 1 180 -21 45 -15 104 -40 130 -57 26
-16 52 -30 57 -30 30 0 40 91 15 128 -55 78 -303 138 -466 112z"/>
<path d="M6706 6872 c-16 -4 -33 -14 -38 -22 -18 -32 -408 -1126 -408 -1146 0
-17 8 -23 35 -28 41 -8 101 1 113 18 5 6 31 75 57 154 l47 142 250 -2 250 -3
28 -75 c14 -41 39 -110 54 -152 l28 -77 43 -7 c52 -7 104 3 112 22 7 19 -407
1162 -424 1169 -26 9 -117 14 -147 7z m161 -459 l100 -288 -200 -3 c-110 -1
-202 0 -205 2 -6 7 190 576 198 576 3 0 51 -129 107 -287z"/>
<path d="M18535 6871 l-30 -6 -3 -573 c-2 -561 -2 -572 18 -592 19 -19 33 -20
300 -20 266 0 280 1 290 19 15 29 12 87 -6 105 -13 14 -48 16 -230 16 l-214 0
0 519 c0 286 -3 522 -7 524 -16 10 -89 15 -118 8z"/>
<path d="M20390 6873 c-14 -3 -28 -10 -32 -17 -11 -16 -9 -1148 1 -1165 10
-16 117 -21 139 -8 9 6 12 136 12 592 0 321 -3 586 -7 588 -14 8 -88 15 -113
10z"/>
<path d="M21792 6873 c-13 -2 -26 -11 -29 -18 -5 -15 391 -1153 408 -1170 16
-16 166 -12 183 5 17 18 406 1127 406 1157 0 18 -7 23 -42 28 -24 3 -56 2 -73
-3 -30 -8 -32 -14 -200 -515 -93 -279 -172 -507 -175 -507 -3 0 -81 224 -174
498 -93 273 -174 503 -180 509 -13 14 -88 24 -124 16z"/>
<path d="M24050 6871 l-25 -7 0 -589 0 -589 36 -9 c20 -5 51 -4 70 0 l34 9 3
584 c1 321 -1 587 -5 591 -12 12 -85 19 -113 10z"/>
<path d="M8551 6851 c-21 -21 -21 -23 -19 -593 l3 -572 38 -9 c21 -5 53 -5 75
0 l37 9 3 262 2 262 83 0 c96 0 148 -20 190 -70 39 -46 61 -92 136 -284 65
-166 67 -170 101 -179 19 -5 53 -6 77 -2 37 5 43 9 43 31 0 35 -144 388 -182
448 -18 27 -49 61 -70 76 l-38 28 47 23 c68 33 127 91 153 151 18 42 21 65 18
137 -5 143 -60 219 -195 272 -52 20 -79 23 -270 27 -204 4 -212 3 -232 -17z
m436 -134 c50 -27 81 -66 94 -119 23 -97 -10 -179 -89 -226 -43 -25 -57 -27
-174 -31 l-128 -3 0 202 0 202 133 -4 c101 -3 140 -8 164 -21z"/>
<path d="M10634 6856 c-18 -14 -19 -32 -19 -581 0 -549 1 -567 19 -581 27 -19
350 -19 459 1 166 29 301 123 365 255 53 109 66 177 66 340 0 129 -3 154 -26
222 -63 191 -194 305 -392 343 -107 21 -444 21 -472 1z m488 -145 c111 -43
197 -149 228 -281 7 -30 13 -100 12 -155 -1 -186 -49 -313 -146 -386 -76 -58
-130 -71 -298 -77 l-148 -4 0 467 0 467 148 -4 c120 -4 158 -9 204 -27z"/>
<path d="M15156 6852 c-15 -17 -16 -69 -14 -593 l3 -573 38 -9 c21 -5 53 -5
75 0 l37 9 3 263 2 263 93 -4 c82 -3 99 -6 135 -31 60 -39 88 -87 172 -300 85
-214 85 -214 183 -201 42 5 47 9 47 30 0 30 -128 346 -174 429 -18 34 -51 74
-75 92 l-42 32 43 21 c62 29 114 74 145 127 21 36 27 62 31 124 8 143 -39 234
-150 288 -88 43 -144 51 -353 51 -164 0 -184 -2 -199 -18z m417 -128 c90 -31
139 -122 119 -221 -14 -68 -35 -98 -91 -131 -42 -25 -56 -27 -173 -31 l-128
-3 0 201 0 201 113 0 c77 0 128 -5 160 -16z"/>
<path d="M25570 6850 c-20 -20 -20 -33 -20 -589 0 -445 3 -572 13 -578 21 -13
128 -8 138 8 6 8 9 207 7 507 -2 270 -2 492 -1 492 1 0 11 -19 21 -42 25 -58
458 -865 485 -905 32 -47 66 -63 136 -63 109 0 101 -51 101 609 0 641 9 581
-85 581 -33 0 -57 -5 -64 -14 -9 -10 -11 -139 -9 -485 2 -259 2 -471 1 -471
-2 0 -26 45 -53 101 -62 123 -414 781 -437 815 -25 39 -65 54 -143 54 -57 0
-74 -4 -90 -20z"/>
</g>
</svg>
